<mxfile host="65bd71144e">
    <diagram id="ZaT9tbljy9xAsVbBOpcb" name="Page-1">
        <mxGraphModel dx="1867" dy="677" grid="1" gridSize="10" guides="1" tooltips="1" connect="1" arrows="1" fold="1" page="1" pageScale="1" pageWidth="850" pageHeight="1100" math="0" shadow="0">
            <root>
                <mxCell id="0"/>
                <mxCell id="1" parent="0"/>
                <mxCell id="2" value="" style="whiteSpace=wrap;html=1;strokeColor=none;" parent="1" vertex="1">
                    <mxGeometry x="-230" y="190" width="1000" height="630" as="geometry"/>
                </mxCell>
                <mxCell id="16" value="" style="group" parent="1" vertex="1" connectable="0">
                    <mxGeometry x="30" y="500" width="736.25" height="300" as="geometry"/>
                </mxCell>
                <mxCell id="8" value="&lt;br&gt;&lt;span style=&quot;color: rgb(0, 0, 0); font-family: Söhne, ui-sans-serif, system-ui, -apple-system, &amp;quot;Segoe UI&amp;quot;, Roboto, Ubuntu, Cantarell, &amp;quot;Noto Sans&amp;quot;, sans-serif, &amp;quot;Helvetica Neue&amp;quot;, Arial, &amp;quot;Apple Color Emoji&amp;quot;, &amp;quot;Segoe UI Emoji&amp;quot;, &amp;quot;Segoe UI Symbol&amp;quot;, &amp;quot;Noto Color Emoji&amp;quot;; font-size: 14px; font-style: normal; font-variant-ligatures: normal; font-variant-caps: normal; font-weight: 400; letter-spacing: normal; orphans: 2; text-align: left; text-indent: 0px; text-transform: none; widows: 2; word-spacing: 0px; -webkit-text-stroke-width: 0px; text-decoration-thickness: initial; text-decoration-style: initial; text-decoration-color: initial; float: none; display: inline !important;&quot;&gt;Lorem ipsum dolor sit amet, consectetur adipiscing elit. Sed do eiusmod tempor incididunt ut labore et dolore magna aliqua . . .&lt;/span&gt;&lt;br&gt;" style="whiteSpace=wrap;html=1;rounded=1;fillColor=#dae8fc;strokeColor=#6c8ebf;gradientDirection=north;gradientColor=#7ea6e0;" parent="16" vertex="1">
                    <mxGeometry width="520" height="140.00000000000003" as="geometry"/>
                </mxCell>
                <mxCell id="9" value="" style="whiteSpace=wrap;html=1;rounded=1;fillColor=#dae8fc;strokeColor=#6c8ebf;gradientColor=#7ea6e0;" parent="16" vertex="1">
                    <mxGeometry y="159.996" width="520" height="140.00400000000002" as="geometry"/>
                </mxCell>
                <mxCell id="32" value="&lt;font style=&quot;font-size: 16px;&quot;&gt;&lt;b&gt;My computer can't run GTA 6 and I don't know what to do! Help pls!&lt;/b&gt;&lt;/font&gt;" style="text;strokeColor=none;align=left;fillColor=none;html=1;verticalAlign=middle;whiteSpace=wrap;rounded=0;labelBackgroundColor=none;strokeWidth=4;fontSize=14;fontColor=#000000;" parent="16" vertex="1">
                    <mxGeometry x="10" y="12" width="500" height="48" as="geometry"/>
                </mxCell>
                <mxCell id="33" value="&lt;font style=&quot;font-size: 16px;&quot;&gt;&lt;b&gt;Accidently caught my motherboard on fire, Im not sure what caused that to happen.&lt;/b&gt;&lt;/font&gt;" style="text;strokeColor=none;align=left;fillColor=none;html=1;verticalAlign=middle;whiteSpace=wrap;rounded=0;labelBackgroundColor=none;strokeWidth=4;fontSize=14;fontColor=#000000;" parent="16" vertex="1">
                    <mxGeometry x="10" y="168" width="500" height="48" as="geometry"/>
                </mxCell>
                <mxCell id="35" value="&lt;span style=&quot;font-family: Söhne, ui-sans-serif, system-ui, -apple-system, &amp;quot;Segoe UI&amp;quot;, Roboto, Ubuntu, Cantarell, &amp;quot;Noto Sans&amp;quot;, sans-serif, &amp;quot;Helvetica Neue&amp;quot;, Arial, &amp;quot;Apple Color Emoji&amp;quot;, &amp;quot;Segoe UI Emoji&amp;quot;, &amp;quot;Segoe UI Symbol&amp;quot;, &amp;quot;Noto Color Emoji&amp;quot;; text-align: left;&quot;&gt;Lorem ipsum dolor sit amet, consectetur adipiscing elit. Sed do eiusmod tempor incididunt ut labore et dolore magna aliqua . . .&lt;/span&gt;" style="text;strokeColor=none;align=center;fillColor=none;html=1;verticalAlign=middle;whiteSpace=wrap;rounded=0;labelBackgroundColor=none;strokeWidth=4;fontSize=14;fontColor=#000000;" parent="16" vertex="1">
                    <mxGeometry x="10" y="216" width="500" height="48" as="geometry"/>
                </mxCell>
                <mxCell id="52" value="&lt;p style=&quot;line-height: 100%;&quot;&gt;&lt;font color=&quot;#000000&quot; style=&quot;font-size: 8px;&quot;&gt;&lt;b&gt;7 COMMENTS&lt;/b&gt;&lt;/font&gt;&lt;/p&gt;" style="whiteSpace=wrap;html=1;rounded=1;labelBackgroundColor=none;fillStyle=solid;strokeColor=none;strokeWidth=4;fontSize=14;fillColor=#f5f5f5;gradientDirection=radial;fontColor=#333333;" parent="16" vertex="1">
                    <mxGeometry x="310" y="109.50000000000001" width="80" height="24" as="geometry"/>
                </mxCell>
                <mxCell id="53" value="&lt;p style=&quot;line-height: 100%;&quot;&gt;&lt;font color=&quot;#000000&quot; style=&quot;font-size: 8px;&quot;&gt;&lt;b&gt;16 COMMENTS&lt;/b&gt;&lt;/font&gt;&lt;/p&gt;" style="whiteSpace=wrap;html=1;rounded=1;labelBackgroundColor=none;fillStyle=solid;strokeColor=none;strokeWidth=4;fontSize=14;fillColor=#f5f5f5;gradientDirection=radial;fontColor=#333333;" parent="16" vertex="1">
                    <mxGeometry x="310" y="264" width="80" height="24" as="geometry"/>
                </mxCell>
                <mxCell id="54" value="&lt;p style=&quot;line-height: 100%;&quot;&gt;&lt;font color=&quot;#000000&quot; style=&quot;font-size: 8px;&quot;&gt;&lt;b&gt;5 SHARES&lt;/b&gt;&lt;/font&gt;&lt;/p&gt;" style="whiteSpace=wrap;html=1;rounded=1;labelBackgroundColor=none;fillStyle=solid;strokeColor=none;strokeWidth=4;fontSize=14;fillColor=#f5f5f5;gradientDirection=radial;fontColor=#333333;" parent="16" vertex="1">
                    <mxGeometry x="400" y="108" width="80" height="24" as="geometry"/>
                </mxCell>
                <mxCell id="55" value="&lt;p style=&quot;line-height: 100%;&quot;&gt;&lt;font color=&quot;#000000&quot;&gt;&lt;span style=&quot;font-size: 8px;&quot;&gt;&lt;b&gt;3 SHARES&lt;/b&gt;&lt;/span&gt;&lt;/font&gt;&lt;/p&gt;" style="whiteSpace=wrap;html=1;rounded=1;labelBackgroundColor=none;fillStyle=solid;strokeColor=none;strokeWidth=4;fontSize=14;fillColor=#f5f5f5;gradientDirection=radial;fontColor=#333333;" parent="16" vertex="1">
                    <mxGeometry x="400" y="264" width="80" height="24" as="geometry"/>
                </mxCell>
                <mxCell id="56" value="&lt;p style=&quot;line-height: 100%;&quot;&gt;&lt;font color=&quot;#000000&quot; style=&quot;font-size: 8px;&quot;&gt;&lt;b&gt;VIEW CONTENT&lt;/b&gt;&lt;/font&gt;&lt;/p&gt;" style="whiteSpace=wrap;html=1;rounded=1;labelBackgroundColor=none;fillStyle=solid;strokeColor=none;strokeWidth=4;fontSize=14;fillColor=#f5f5f5;gradientDirection=radial;fontColor=#333333;" parent="16" vertex="1">
                    <mxGeometry x="110" y="109.50000000000001" width="160" height="24" as="geometry"/>
                </mxCell>
                <mxCell id="57" value="&lt;p style=&quot;line-height: 100%;&quot;&gt;&lt;font color=&quot;#000000&quot; style=&quot;font-size: 8px;&quot;&gt;&lt;b&gt;VIEW CONTENT&lt;/b&gt;&lt;/font&gt;&lt;/p&gt;" style="whiteSpace=wrap;html=1;rounded=1;labelBackgroundColor=none;fillStyle=solid;strokeColor=none;strokeWidth=4;fontSize=14;fillColor=#f5f5f5;gradientDirection=radial;fontColor=#333333;" parent="16" vertex="1">
                    <mxGeometry x="110" y="264" width="160" height="24" as="geometry"/>
                </mxCell>
                <mxCell id="17" value="&lt;font color=&quot;#000000&quot;&gt;&lt;b&gt;FILTER&lt;/b&gt;&lt;/font&gt;" style="whiteSpace=wrap;html=1;rounded=1;fillColor=#f5f5f5;strokeColor=#666666;gradientColor=#b3b3b3;" parent="1" vertex="1">
                    <mxGeometry x="31.25" y="470" width="66.67" height="20" as="geometry"/>
                </mxCell>
                <mxCell id="63" value="&lt;span style=&quot;font-size: 19px;&quot;&gt;BrianOrtiz_1995&lt;/span&gt;" style="text;strokeColor=none;align=left;fillColor=none;html=1;verticalAlign=middle;whiteSpace=wrap;rounded=0;labelBackgroundColor=none;fillStyle=solid;strokeWidth=4;fontSize=8;fontColor=#FFFFFF;" parent="1" vertex="1">
                    <mxGeometry x="30" y="290" width="150" height="30" as="geometry"/>
                </mxCell>
                <mxCell id="31" value="&lt;span style=&quot;font-family: Söhne, ui-sans-serif, system-ui, -apple-system, &amp;quot;Segoe UI&amp;quot;, Roboto, Ubuntu, Cantarell, &amp;quot;Noto Sans&amp;quot;, sans-serif, &amp;quot;Helvetica Neue&amp;quot;, Arial, &amp;quot;Apple Color Emoji&amp;quot;, &amp;quot;Segoe UI Emoji&amp;quot;, &amp;quot;Segoe UI Symbol&amp;quot;, &amp;quot;Noto Color Emoji&amp;quot;; font-size: 14px;&quot;&gt;&lt;font color=&quot;#ffffff&quot;&gt;Lorem ipsum dolor sit amet, consectetur adipiscing elit. Sed do eiusmod tempor incididunt ut labore et dolore magna aliqua. Ut enim ad minim veniam, quis nostrud exercitation ullamco laboris nisi ut aliquip ex ea commodo consequat.&lt;/font&gt;&lt;/span&gt;" style="text;strokeColor=none;align=left;fillColor=none;html=1;verticalAlign=middle;whiteSpace=wrap;rounded=0;" parent="1" vertex="1">
                    <mxGeometry x="31.25" y="330" width="500" height="60" as="geometry"/>
                </mxCell>
                <mxCell id="81" value="" style="shape=offPageConnector;whiteSpace=wrap;html=1;rounded=0;labelBackgroundColor=none;fillStyle=solid;strokeColor=none;strokeWidth=4;fontSize=19;fillColor=#fff2cc;gradientColor=#ffd966;gradientDirection=radial;" parent="1" vertex="1">
                    <mxGeometry x="181.25" y="410" width="30" height="30" as="geometry"/>
                </mxCell>
                <mxCell id="82" value="" style="shape=offPageConnector;whiteSpace=wrap;html=1;rounded=0;labelBackgroundColor=none;fillStyle=solid;strokeColor=none;strokeWidth=4;fontSize=19;fillColor=#ffcd28;gradientColor=#ffa500;gradientDirection=radial;" parent="1" vertex="1">
                    <mxGeometry x="131.25" y="410" width="30" height="30" as="geometry"/>
                </mxCell>
                <mxCell id="83" value="" style="shape=offPageConnector;whiteSpace=wrap;html=1;rounded=0;labelBackgroundColor=none;fillStyle=solid;strokeColor=none;strokeWidth=4;fontSize=19;fillColor=#d5e8d4;gradientColor=#97d077;gradientDirection=radial;" parent="1" vertex="1">
                    <mxGeometry x="81.25" y="410" width="30" height="30" as="geometry"/>
                </mxCell>
                <mxCell id="84" value="" style="shape=offPageConnector;whiteSpace=wrap;html=1;rounded=0;labelBackgroundColor=none;fillStyle=solid;strokeColor=none;strokeWidth=4;fontSize=19;fillColor=#f8cecc;gradientColor=#ea6b66;gradientDirection=radial;" parent="1" vertex="1">
                    <mxGeometry x="31.25" y="410" width="30" height="30" as="geometry"/>
                </mxCell>
                <mxCell id="5" value="" style="ellipse;whiteSpace=wrap;html=1;fillColor=#1ba1e2;fontColor=#ffffff;strokeColor=#FFFFFF;strokeWidth=4;perimeterSpacing=0;" parent="1" vertex="1">
                    <mxGeometry x="-190" y="280" width="190" height="190" as="geometry"/>
                </mxCell>
                <mxCell id="4" value="" style="whiteSpace=wrap;html=1;strokeColor=#F0C311;strokeWidth=4;perimeterSpacing=0;" parent="1" vertex="1">
                    <mxGeometry x="-230" y="190" width="1000" height="62.5" as="geometry"/>
                </mxCell>
                <mxCell id="117" value="" style="group" vertex="1" connectable="0" parent="1">
                    <mxGeometry x="540" y="210" width="171.25" height="27.5" as="geometry"/>
                </mxCell>
                <mxCell id="122" value="" style="group" vertex="1" connectable="0" parent="117">
                    <mxGeometry x="30" width="169.06944444444446" height="27.499999999999996" as="geometry"/>
                </mxCell>
                <mxCell id="74" value="" style="shape=actor;whiteSpace=wrap;html=1;rounded=1;labelBackgroundColor=none;fillStyle=solid;strokeColor=none;strokeWidth=4;fontSize=19;fillColor=#f5f5f5;gradientColor=#b3b3b3;gradientDirection=radial;" parent="122" vertex="1">
                    <mxGeometry x="71.35416666666666" width="19.02777777777778" height="27.499999999999996" as="geometry"/>
                </mxCell>
                <mxCell id="77" value="" style="shape=callout;whiteSpace=wrap;html=1;perimeter=calloutPerimeter;rounded=0;labelBackgroundColor=none;fillStyle=solid;strokeColor=none;strokeWidth=4;fontSize=19;fillColor=#f5f5f5;gradientColor=#b3b3b3;gradientDirection=radial;position2=0.67;size=13;position=0.67;base=10;" parent="122" vertex="1">
                    <mxGeometry x="129.62673611111111" width="28.541666666666664" height="27.499999999999996" as="geometry"/>
                </mxCell>
                <mxCell id="78" value="" style="ellipse;whiteSpace=wrap;html=1;aspect=fixed;rounded=0;labelBackgroundColor=none;fillStyle=solid;strokeColor=none;strokeWidth=4;fontSize=19;fontColor=#FFFFFF;fillColor=#E30034;gradientColor=none;gradientDirection=radial;" parent="122" vertex="1">
                    <mxGeometry x="161.73611111111111" width="7.333333333333333" height="7.333333333333333" as="geometry"/>
                </mxCell>
                <mxCell id="79" value="" style="ellipse;whiteSpace=wrap;html=1;aspect=fixed;rounded=0;labelBackgroundColor=none;fillStyle=solid;strokeColor=none;strokeWidth=4;fontSize=19;fontColor=#FFFFFF;fillColor=#E30034;gradientColor=none;gradientDirection=radial;" parent="122" vertex="1">
                    <mxGeometry x="90.38194444444444" width="7.333333333333333" height="7.333333333333333" as="geometry"/>
                </mxCell>
                <mxCell id="80" value="" style="shape=offPageConnector;whiteSpace=wrap;html=1;rounded=0;labelBackgroundColor=none;fillStyle=solid;strokeColor=none;strokeWidth=4;fontSize=19;fillColor=#f5f5f5;gradientColor=#b3b3b3;gradientDirection=radial;rotation=-180;" parent="122" vertex="1">
                    <mxGeometry x="1.7763568394002505e-15" y="2.2916666666666665" width="23.78472222222222" height="22.916666666666664" as="geometry"/>
                </mxCell>
                <mxCell id="120" value="" style="group" vertex="1" connectable="0" parent="1">
                    <mxGeometry x="570" y="270" width="180" height="170" as="geometry"/>
                </mxCell>
                <mxCell id="19" value="&lt;b&gt;MESSAGE&lt;/b&gt;" style="whiteSpace=wrap;html=1;rounded=1;fillColor=#dae8fc;strokeColor=#6c8ebf;gradientColor=#7ea6e0;gradientDirection=radial;" parent="120" vertex="1">
                    <mxGeometry x="97.5" y="100" width="82.5" height="30" as="geometry"/>
                </mxCell>
                <mxCell id="24" value="&lt;b&gt;&lt;font color=&quot;#000000&quot;&gt;FOLLOWING 29&lt;/font&gt;&lt;/b&gt;" style="whiteSpace=wrap;html=1;rounded=1;fillColor=#f5f5f5;strokeColor=#666666;gradientColor=#b3b3b3;" parent="120" vertex="1">
                    <mxGeometry width="180" height="30" as="geometry"/>
                </mxCell>
                <mxCell id="25" value="&lt;b&gt;&lt;font color=&quot;#000000&quot;&gt;FOLLOWERS 12&lt;/font&gt;&lt;/b&gt;" style="whiteSpace=wrap;html=1;rounded=1;fillColor=#f5f5f5;strokeColor=#666666;gradientColor=#b3b3b3;" parent="120" vertex="1">
                    <mxGeometry y="40" width="180" height="30" as="geometry"/>
                </mxCell>
                <mxCell id="26" value="&lt;b&gt;FOLLOW&lt;/b&gt;" style="whiteSpace=wrap;html=1;rounded=1;fillColor=#dae8fc;strokeColor=#6c8ebf;gradientColor=#7ea6e0;gradientDirection=radial;" parent="120" vertex="1">
                    <mxGeometry y="100" width="87.5" height="30" as="geometry"/>
                </mxCell>
                <mxCell id="71" value="&lt;b&gt;&lt;font color=&quot;#000000&quot;&gt;BLOCK&lt;/font&gt;&lt;/b&gt;" style="whiteSpace=wrap;html=1;rounded=1;fillColor=#E30034;strokeColor=#6F0000;fontColor=#ffffff;" parent="120" vertex="1">
                    <mxGeometry y="140" width="180" height="30" as="geometry"/>
                </mxCell>
                <mxCell id="123" value="" style="whiteSpace=wrap;html=1;strokeWidth=4;gradientDirection=radial;rotation=90;rounded=1;strokeColor=#F0D107;" vertex="1" parent="1">
                    <mxGeometry x="-250" y="535" width="295" height="230" as="geometry"/>
                </mxCell>
            </root>
        </mxGraphModel>
    </diagram>
</mxfile>